{"title":"Robert-Adrian Pejo - Dallas among us (2005) DVDRip XviD","uid":9824534,"size":1170795889,"categoryP":"video","categoryS":"movies","magnet":"?xt=urn:btih:bd4ae3487b2b99f0bd3589887ae28728e5970529&amp;dn=Robert-Adrian+Pejo+-+Dallas+among+us+%282005%29+DVDRip+XviD&amp;tr=udp%3A%2F%2Ftracker.openbittorrent.com%3A80&amp;tr=udp%3A%2F%2Fopen.demonii.com%3A1337&amp;tr=udp%3A%2F%2Ftracker.coppersurfer.tk%3A6969&amp;tr=udp%3A%2F%2Fexodus.desync.com%3A6969","seeders":1,"leechers":0,"uploader":"rpessoa","files":3,"time":1395756423,"description":"Radu, son of gypsies is the only one that has left the gypsy village. The village, named Dallas, consists of shacks and is built near a garbage dump, the source of income for the completely wretched and illiterate inhabitants. A teacher now, he returns after many years to attend the funeral of his father. Gradually he gets assimilated again and gets involved with his former love and neighbor Oana. However, Oanas husband, a despicable character, who has been chased out of the village due to the way he treated his wife, comes to take revenge. During the brawl, Oanda gets killed and thus Radu finally leaves the village to return to his former life. \n\nSubs: English and Portuguese\n &lt;a href=&quot;\nhttp://www.imdb.com/title/tt0382627/&quot; rel=&quot;nofollow&quot; target=&quot;_NEW&quot;&gt;\nhttp://www.imdb.com/title/tt0382627/&lt;/a&gt;\n\nGeneral\nComplete name : Dallas Pashamende (2005)XVID-KG.avi\nFormat : AVI\nFormat/Info : Audio Video Interleave\nFile size : 1.09 GiB\nDuration : 1h 32mn\nOverall bit rate : 1 685 Kbps\nWriting application : VirtualDubMod 1.5.10.2 (build 2540/release)\nWriting library : VirtualDubMod build 2540/release\n\nVideo\nID : 0\nFormat : MPEG-4 Visual\nFormat profile : Advanced Simple@L5\nFormat settings, BVOP : Yes\nFormat settings, QPel : No\nFormat settings, GMC : No warppoints\nFormat settings, Matrix : Default (MPEG)\nCodec ID : XVID\nCodec ID/Hint : XviD\nDuration : 1h 32mn\nBit rate : 1 484 Kbps\nWidth : 688 pixels\nHeight : 368 pixels\nDisplay aspect ratio : 1.870\nFrame rate : 25.000 fps\nColor space : YUV\nChroma subsampling : 4:2:0\nBit depth : 8 bits\nScan type : Progressive\nCompression mode : Lossy\nBits/(Pixel*Frame) : 0.234\nStream size : 983 MiB (88%)\nWriting library : XviD 64\n\nAudio\nID : 1\nFormat : AC-3\nFormat/Info : Audio Coding 3\nMode extension : CM (complete main)\nCodec ID : 2000\nDuration : 1h 32mn\nBit rate mode : Constant\nBit rate : 192 Kbps\nChannel(s) : 2 channels\nChannel positions : Front: L R\nSampling rate : 48.0 KHz\nBit depth : 16 bits\nCompression mode : Lossy\nStream size : 127 MiB (11%)\nAlignment : Split accross interleaves\nInterleave, duration : 40 ms (1.00 video frame)\nInterleave, preload duration : 500 ms\n\nThanks to janatas@KG for the rip.","torrent":{"xt":"urn:btih:bd4ae3487b2b99f0bd3589887ae28728e5970529","amp;dn":"Robert-Adrian+Pejo+-+Dallas+among+us+%282005%29+DVDRip+XviD","amp;tr":["udp%3A%2F%2Ftracker.openbittorrent.com%3A80","udp%3A%2F%2Fopen.demonii.com%3A1337","udp%3A%2F%2Ftracker.coppersurfer.tk%3A6969","udp%3A%2F%2Fexodus.desync.com%3A6969"],"infoHash":"bd4ae3487b2b99f0bd3589887ae28728e5970529","infoHashBuffer":{"type":"Buffer","data":[189,74,227,72,123,43,153,240,189,53,137,136,122,226,135,40,229,151,5,41]},"announce":[],"urlList":[]}}